<svg width="28" height="29" viewBox="0 0 28 29" fill="none" xmlns="http://www.w3.org/2000/svg">
<path fill-rule="evenodd" clip-rule="evenodd" d="M14.6954 26.416C11.0772 25.5153 7.59287 25.5743 3.92285 25.4664C3.20612 25.4454 2.61025 26.0153 2.58866 26.7385C2.56707 27.4622 3.1327 28.0662 3.84943 28.0876C7.32947 28.1898 10.6411 28.1072 14.0779 28.962C14.7731 29.1351 15.4769 28.7046 15.6453 28.0019C15.818 27.2996 15.3905 26.5886 14.6954 26.416Z" fill="#00715D"/>
<path fill-rule="evenodd" clip-rule="evenodd" d="M21.7067 18.764C16.1887 12.6538 9.09049 6.8966 1.92317 2.87262C1.29711 2.5217 0.506945 2.75027 0.161531 3.38306C-0.18388 4.01585 0.040657 4.81469 0.666717 5.16561C7.59656 9.05674 14.4617 14.6247 19.794 20.533C20.2776 21.067 21.0979 21.1042 21.6247 20.6161C22.1514 20.1279 22.1903 19.298 21.7067 18.764Z" fill="#00715D"/>
<path fill-rule="evenodd" clip-rule="evenodd" d="M27.7346 17.2158C28.6457 11.6274 27.0913 5.86715 24.8936 0.785611C24.6044 0.122668 23.8402 -0.179751 23.1882 0.109986C22.5319 0.40016 22.234 1.17411 22.5189 1.83706C24.5223 6.46498 26.0076 11.699 25.1786 16.7889C25.0621 17.503 25.5413 18.1781 26.2451 18.2957C26.9489 18.4137 27.6181 17.9295 27.7346 17.2158Z" fill="#00715D"/>
</svg>
