<svg width="25" height="24" viewBox="0 0 25 24" fill="none" xmlns="http://www.w3.org/2000/svg">
<g clip-path="url(#clip0_5274_1877)">
<path d="M3.54762 19.3077C3.54762 19.4607 3.60782 19.6074 3.71499 19.7156C3.82215 19.8238 3.9675 19.8846 4.11905 19.8846H5.40476C5.5322 19.8846 5.65598 19.8416 5.75643 19.7624C5.85688 19.6833 5.92823 19.5725 5.95914 19.4476L6.8509 15.8462H3.54762V19.3077ZM7.35714 15.3213C9.24029 15.6108 13.386 17.1036 16.119 19.6362V4.3638C13.386 6.89639 9.24029 8.38918 7.35714 8.67865V15.3213ZM18.2143 2C17.8103 2.00046 17.423 2.16269 17.1373 2.45111C16.8516 2.73953 16.6909 3.13058 16.6905 3.53846V20.4615C16.6905 20.8696 16.851 21.2609 17.1368 21.5494C17.4226 21.8379 17.8101 22 18.2143 22C18.6184 22 19.006 21.8379 19.2918 21.5494C19.5776 21.2609 19.7381 20.8696 19.7381 20.4615V3.53846C19.7376 3.13058 19.577 2.73953 19.2913 2.45111C19.0056 2.16269 18.6183 2.00046 18.2143 2ZM3.54762 8.73077H6.78571V15.2692H3.54762V8.73077ZM0.5 10.4615V13.5385C0.500504 13.9973 0.681278 14.4373 1.00266 14.7617C1.32404 15.0862 1.75978 15.2687 2.21429 15.2692H2.97619V8.73077H2.21429C1.75978 8.73128 1.32404 8.91379 1.00266 9.23826C0.681278 9.56273 0.500504 10.0027 0.5 10.4615ZM23.9286 11.4231H22.0238C21.8723 11.4231 21.7269 11.4839 21.6197 11.5921C21.5126 11.7002 21.4524 11.847 21.4524 12C21.4524 12.153 21.5126 12.2998 21.6197 12.4079C21.7269 12.5161 21.8723 12.5769 22.0238 12.5769H23.9286C24.0801 12.5769 24.2255 12.5161 24.3326 12.4079C24.4398 12.2998 24.5 12.153 24.5 12C24.5 11.847 24.4398 11.7002 24.3326 11.5921C24.2255 11.4839 24.0801 11.4231 23.9286 11.4231ZM21.0836 8.41038C21.1692 8.41038 21.2537 8.39085 21.3308 8.35327L23.0476 7.51995C23.1842 7.45365 23.2891 7.33528 23.3393 7.19088C23.3894 7.04649 23.3807 6.8879 23.315 6.75C23.2493 6.6121 23.1321 6.50619 22.9891 6.45556C22.846 6.40494 22.689 6.41374 22.5524 6.48005L20.8358 7.31341C20.719 7.37005 20.6247 7.46507 20.5684 7.58289C20.5122 7.70071 20.4972 7.83434 20.5261 7.96187C20.5549 8.08939 20.6258 8.20324 20.7271 8.28473C20.8285 8.36623 20.9543 8.41053 21.0838 8.41038H21.0836ZM23.0476 16.48L21.331 15.6467C21.1946 15.5816 21.0382 15.5737 20.896 15.6246C20.7538 15.6755 20.6373 15.7811 20.5719 15.9183C20.5065 16.0556 20.4975 16.2135 20.547 16.3574C20.5964 16.5013 20.7002 16.6196 20.8358 16.6866L22.5524 17.52C22.689 17.5863 22.846 17.5951 22.9891 17.5444C23.1321 17.4938 23.2493 17.3879 23.315 17.25C23.3807 17.1121 23.3894 16.9535 23.3393 16.8091C23.2891 16.6647 23.1842 16.5464 23.0476 16.48Z" fill="#FFD249"/>
</g>
<defs>
<clipPath id="clip0_5274_1877">
<rect width="24" height="24" fill="white" transform="translate(0.5)"/>
</clipPath>
</defs>
</svg>
