<svg width="24" height="24" viewBox="0 0 24 24" fill="none" xmlns="http://www.w3.org/2000/svg">
<path d="M15.2153 9.87858C15.0886 6.27933 9.90306 6.28083 9.77706 9.87858C9.89406 13.4733 15.0994 13.4718 15.2153 9.87858ZM4.56418 10.9286C4.85963 11.1595 5.20596 11.3164 5.57435 11.3864C5.94273 11.4563 6.32249 11.4373 6.68201 11.3307C7.04152 11.2242 7.37039 11.0333 7.6412 10.774C7.91201 10.5146 8.11694 10.1943 8.23891 9.83977C8.36088 9.4852 8.39637 9.10661 8.34242 8.73555C8.28846 8.36449 8.14663 8.01169 7.92873 7.70653C7.71083 7.40138 7.42317 7.15271 7.08971 6.98123C6.75625 6.80975 6.38665 6.72043 6.01168 6.7207C5.52503 6.72765 5.05238 6.88458 4.65822 7.17008C4.26406 7.45559 3.96759 7.85576 3.80927 8.31599C3.65095 8.77621 3.6385 9.27408 3.7736 9.74165C3.90871 10.2092 4.18479 10.6237 4.56418 10.9286Z" fill="#FFD249"/>
<path d="M7.05869 15.3923C7.06581 14.2861 7.82519 13.3362 8.57369 12.617C8.7766 12.4307 8.99349 12.2602 9.22244 12.107C8.92717 11.7783 8.58162 11.4986 8.19869 11.2782C7.61747 11.857 6.83062 12.182 6.01037 12.182C5.19012 12.182 4.40328 11.857 3.82206 11.2782C2.77694 11.9075 1.45956 13.2995 2.23206 14.5932C2.37637 14.8375 2.58211 15.0397 2.82881 15.1799C3.07551 15.32 3.35459 15.3931 3.63831 15.392L7.05869 15.3923ZM16.6257 9.07659C16.7288 12.188 21.2344 12.1868 21.3364 9.07659C21.2243 5.95996 16.7374 5.96034 16.6257 9.07659ZM15.3132 12.707C15.1626 12.6051 15.0061 12.5125 14.8444 12.4295C14.7355 12.5304 14.6202 12.6243 14.4994 12.7107C13.8509 13.1672 13.0659 13.3882 12.2745 13.337C11.4831 13.2859 10.733 12.9656 10.1487 12.4295C9.05819 13.0268 7.91369 14.0787 7.80869 15.392C7.80619 15.8918 8.00233 16.3721 8.35395 16.7273C8.70557 17.0825 9.18388 17.2835 9.68369 17.2861H15.3094C15.6331 17.2821 15.9503 17.1951 16.2307 17.0335C16.5111 16.8718 16.7453 16.6409 16.9109 16.3628C17.0765 16.0847 17.1679 15.7687 17.1764 15.4451C17.1849 15.1216 17.1102 14.8013 16.9594 14.5148C16.5699 13.7844 16.004 13.163 15.3132 12.707Z" fill="#FFD249"/>
<path d="M22.799 12.9653C22.4213 12.2634 21.8584 11.6784 21.1715 11.274C20.5906 11.8544 19.8033 12.1808 18.9821 12.1815C18.1609 12.1822 17.373 11.8572 16.7911 11.2778C16.4097 11.5003 16.0645 11.7798 15.7674 12.1065C15.9964 12.2596 16.2133 12.4301 16.4161 12.6165C16.9466 13.0924 17.3796 13.6668 17.6911 14.3078C17.8496 14.6472 17.9328 15.0169 17.9349 15.3915H21.3549C21.6382 15.388 21.9159 15.3118 22.1613 15.1702C22.4068 15.0287 22.6118 14.8265 22.7567 14.583C22.9016 14.3395 22.9816 14.0629 22.989 13.7797C22.9964 13.4964 22.931 13.216 22.799 12.9653ZM21.5514 16.5626C21.5083 16.5388 21.4609 16.5237 21.4119 16.5182C21.363 16.5127 21.3134 16.5169 21.2661 16.5306C21.2188 16.5442 21.1746 16.5671 21.1361 16.5978C21.0976 16.6285 21.0656 16.6665 21.0417 16.7096C17.4155 23.397 7.583 23.3951 3.95825 16.7096C3.93444 16.6665 3.90237 16.6285 3.86387 16.5978C3.82537 16.5671 3.7812 16.5442 3.73388 16.5306C3.68656 16.5169 3.63701 16.5127 3.58806 16.5182C3.53912 16.5237 3.49174 16.5388 3.44862 16.5626C3.40551 16.5865 3.3675 16.6185 3.33678 16.657C3.30606 16.6955 3.28323 16.7397 3.26958 16.787C3.24201 16.8826 3.25354 16.9852 3.30162 17.0723C7.20575 24.273 17.7954 24.2715 21.6984 17.0723C21.7222 17.0292 21.7373 16.9818 21.7428 16.9328C21.7483 16.8839 21.7441 16.8343 21.7304 16.787C21.7168 16.7397 21.694 16.6955 21.6632 16.657C21.6325 16.6185 21.5945 16.5864 21.5514 16.5626ZM5.10387 5.65764C8.8295 1.14789 16.1709 1.14827 19.8961 5.65764C19.9608 5.73323 20.0528 5.78004 20.152 5.78777C20.2511 5.79551 20.3493 5.76354 20.4249 5.69889C20.5005 5.63424 20.5473 5.54222 20.555 5.44306C20.5627 5.3439 20.5308 5.24573 20.4661 5.17014C16.4536 0.312766 8.546 0.313141 4.5335 5.17089C4.4689 5.24653 4.437 5.34473 4.4448 5.44389C4.45261 5.54305 4.49949 5.63504 4.57512 5.69964C4.65076 5.76424 4.74896 5.79614 4.84812 5.78834C4.94728 5.78053 5.03928 5.73328 5.10387 5.65764Z" fill="#FFD249"/>
<path d="M17.1803 6.04784C17.2585 6.04632 17.3342 6.02061 17.3971 5.97425C17.46 5.92789 17.5069 5.86316 17.5315 5.78899C17.5561 5.71481 17.557 5.63485 17.5342 5.56011C17.5114 5.48538 17.466 5.41955 17.4042 5.37172C15.9837 4.32403 14.265 3.75879 12.5 3.75879C10.7349 3.75879 9.01622 4.32403 7.59572 5.37172C7.51586 5.43099 7.46281 5.51956 7.44825 5.61795C7.4337 5.71634 7.45882 5.81648 7.51809 5.89634C7.57737 5.9762 7.66594 6.02925 7.76433 6.04381C7.86272 6.05836 7.96286 6.03324 8.04272 5.97397C9.33383 5.02196 10.8958 4.50834 12.5 4.50834C14.1041 4.50834 15.6661 5.02196 16.9572 5.97397C17.0217 6.02198 17.1 6.04789 17.1803 6.04784ZM6.62447 16.6581C6.56271 16.5801 6.47248 16.5298 6.37364 16.5183C6.27479 16.5068 6.17543 16.535 6.09741 16.5968C6.01938 16.6585 5.96909 16.7488 5.95759 16.8476C5.94609 16.9465 5.97433 17.0458 6.03609 17.1238C9.20034 21.2725 15.8 21.2721 18.9638 17.1238C19.0256 17.0458 19.0538 16.9465 19.0423 16.8476C19.0308 16.7488 18.9806 16.6585 18.9025 16.5968C18.8245 16.535 18.7251 16.5068 18.6263 16.5183C18.5275 16.5298 18.4372 16.5801 18.3755 16.6581C15.4988 20.4302 9.50072 20.4295 6.62447 16.6581Z" fill="#FFD249"/>
</svg>
