<svg width="87" height="45" viewBox="0 0 87 45" fill="none" xmlns="http://www.w3.org/2000/svg">
<g clip-path="url(#clip0_5249_1007)">
<path d="M42.6606 26.2401H40.4106V25.537H42.6606C43.0813 25.537 43.4235 25.1948 43.4235 24.7741C43.4235 24.3535 43.0813 24.0112 42.6606 24.0112L37 24.0077V27.5066L37.2804 27.9359C37.6694 28.5316 38.3263 28.8872 39.0378 28.8872H43.8925L46.6482 26.213C46.875 25.9929 47.0021 25.6978 47.0061 25.3818C47.0101 25.0659 46.8905 24.7675 46.6694 24.5418C46.2291 24.0925 45.5156 24.0675 45.0449 24.4849C45.0449 24.4849 43.7361 25.7898 43.5755 25.9185C43.3246 26.1197 43.0065 26.2401 42.6606 26.2401ZM44.3861 21.1187H47.1081V21.8218H44.3861C43.9943 21.8218 43.6756 22.1406 43.6756 22.5323C43.6756 22.9225 43.9919 23.2402 44.3816 23.2426H49V20.413L48.7355 20.008C48.3695 19.4475 47.7513 19.1129 47.0819 19.1129H43.2642L41.0467 21.1441L41.0394 21.151C40.8239 21.3601 40.7031 21.6406 40.6994 21.9408C40.6956 22.241 40.8092 22.5244 41.0193 22.7389L41.0193 22.7389C41.4376 23.1658 42.1156 23.1896 42.5628 22.793L42.9769 22.4257C43.0317 21.6959 43.6425 21.1187 44.3861 21.1187Z" fill="#00715D"/>
<path d="M4.968 10.764C5.304 10.764 5.652 10.86 6.012 11.052C6.396 11.22 6.684 11.448 6.876 11.736L15.624 25.2L13.824 25.128L22.788 11.736C23.244 11.088 23.832 10.764 24.552 10.764C25.128 10.764 25.644 10.968 26.1 11.376C26.556 11.784 26.784 12.312 26.784 12.96V33.804C26.784 34.428 26.58 34.956 26.172 35.388C25.764 35.796 25.224 36 24.552 36C23.88 36 23.328 35.796 22.896 35.388C22.488 34.956 22.284 34.428 22.284 33.804V16.848L23.688 17.172L16.344 28.368C16.128 28.632 15.852 28.86 15.516 29.052C15.204 29.244 14.88 29.328 14.544 29.304C14.232 29.328 13.908 29.244 13.572 29.052C13.26 28.86 12.996 28.632 12.78 28.368L5.904 17.496L6.84 15.588V33.804C6.84 34.428 6.648 34.956 6.264 35.388C5.88 35.796 5.376 36 4.752 36C4.152 36 3.66 35.796 3.276 35.388C2.892 34.956 2.7 34.428 2.7 33.804V12.96C2.7 12.36 2.916 11.844 3.348 11.412C3.804 10.98 4.344 10.764 4.968 10.764ZM55.3801 23.4C55.3801 25.2 55.0801 26.88 54.4801 28.44C53.8801 30 53.0281 31.38 51.9241 32.58C50.8441 33.756 49.5481 34.68 48.0361 35.352C46.5481 36.024 44.9161 36.36 43.1401 36.36C41.3641 36.36 39.7321 36.024 38.2441 35.352C36.7561 34.68 35.4601 33.756 34.3561 32.58C33.2761 31.38 32.4361 30 31.8361 28.44C31.2361 26.88 30.9361 25.2 30.9361 23.4C30.9361 21.6 31.2361 19.92 31.8361 18.36C32.4361 16.8 33.2761 15.432 34.3561 14.256C35.4601 13.056 36.7561 12.12 38.2441 11.448C39.7321 10.776 41.3641 10.44 43.1401 10.44C44.9161 10.44 46.5481 10.776 48.0361 11.448C49.5481 12.12 50.8441 13.056 51.9241 14.256C53.0281 15.432 53.8801 16.8 54.4801 18.36C55.0801 19.92 55.3801 21.6 55.3801 23.4ZM50.7001 23.4C50.7001 21.792 50.3761 20.34 49.7281 19.044C49.0801 17.724 48.1921 16.68 47.0641 15.912C45.9361 15.144 44.6281 14.76 43.1401 14.76C41.6521 14.76 40.3441 15.144 39.2161 15.912C38.0881 16.68 37.2001 17.712 36.5521 19.008C35.9281 20.304 35.6161 21.768 35.6161 23.4C35.6161 25.008 35.9281 26.472 36.5521 27.792C37.2001 29.088 38.0881 30.12 39.2161 30.888C40.3441 31.656 41.6521 32.04 43.1401 32.04C44.6281 32.04 45.9361 31.656 47.0641 30.888C48.1921 30.12 49.0801 29.088 49.7281 27.792C50.3761 26.472 50.7001 25.008 50.7001 23.4ZM61.7805 10.764C62.1165 10.764 62.4645 10.86 62.8245 11.052C63.2085 11.22 63.4965 11.448 63.6885 11.736L72.4365 25.2L70.6365 25.128L79.6005 11.736C80.0565 11.088 80.6445 10.764 81.3645 10.764C81.9405 10.764 82.4565 10.968 82.9125 11.376C83.3685 11.784 83.5965 12.312 83.5965 12.96V33.804C83.5965 34.428 83.3925 34.956 82.9845 35.388C82.5765 35.796 82.0365 36 81.3645 36C80.6925 36 80.1405 35.796 79.7085 35.388C79.3005 34.956 79.0965 34.428 79.0965 33.804V16.848L80.5005 17.172L73.1565 28.368C72.9405 28.632 72.6645 28.86 72.3285 29.052C72.0165 29.244 71.6925 29.328 71.3565 29.304C71.0445 29.328 70.7205 29.244 70.3845 29.052C70.0725 28.86 69.8085 28.632 69.5925 28.368L62.7165 17.496L63.6525 15.588V33.804C63.6525 34.428 63.4605 34.956 63.0765 35.388C62.6925 35.796 62.1885 36 61.5645 36C60.9645 36 60.4725 35.796 60.0885 35.388C59.7045 34.956 59.5125 34.428 59.5125 33.804V12.96C59.5125 12.36 59.7285 11.844 60.1605 11.412C60.6165 10.98 61.1565 10.764 61.7805 10.764Z" fill="#00715D"/>
</g>
<defs>
<clipPath id="clip0_5249_1007">
<rect width="87" height="45" fill="white"/>
</clipPath>
</defs>
</svg>
